<?xml version="1.0" standalone="no"?>
<!DOCTYPE svg PUBLIC "-//W3C//DTD SVG 20010904//EN"
 "http://www.w3.org/TR/2001/REC-SVG-20010904/DTD/svg10.dtd">
<svg version="1.0" xmlns="http://www.w3.org/2000/svg"
 width="708.000000pt" height="1296.000000pt" viewBox="0 0 708.000000 1296.000000"
 preserveAspectRatio="xMidYMid meet">

<g transform="translate(0.000000,1296.000000) scale(0.100000,-0.100000)"
fill="#000000" stroke="none">
<path d="M4799 12386 c-30 -24 -83 -64 -119 -88 -69 -47 -244 -169 -345 -240
-151 -106 -256 -195 -535 -458 -91 -85 -190 -177 -220 -204 -328 -294 -746
-753 -952 -1048 -236 -335 -419 -670 -557 -1015 -90 -224 -120 -334 -151 -562
-12 -85 -23 -158 -25 -161 -2 -4 -9 -87 -15 -186 -5 -98 -13 -210 -17 -249 -6
-62 -8 -66 -14 -35 -11 57 -10 -292 1 -470 11 -160 30 -328 51 -440 19 -104
28 -175 39 -324 20 -252 21 -251 -195 -259 -161 -6 -230 -19 -376 -72 -126
-46 -408 -119 -529 -136 -150 -22 -160 -24 -160 -38 0 -17 51 -38 131 -55 131
-27 488 -18 568 15 13 5 76 20 140 33 64 13 172 40 241 60 89 26 154 38 227
43 l102 6 10 -27 c6 -14 15 -52 20 -84 12 -77 188 -546 261 -697 31 -66 61
-130 64 -143 5 -13 0 -58 -10 -102 l-18 -79 -46 -6 c-25 -3 -58 -12 -75 -20
-30 -14 -29 -14 30 -15 38 0 55 -3 46 -9 -7 -5 -91 -9 -185 -9 -94 0 -202 -5
-241 -11 -78 -11 -270 -64 -288 -79 -7 -6 -46 -15 -87 -21 -41 -7 -76 -14 -79
-16 -2 -3 67 -5 155 -5 127 0 171 -4 221 -19 34 -10 64 -17 67 -14 3 3 13 2
23 -1 15 -6 15 -8 3 -16 -16 -10 34 -6 125 10 28 5 79 12 115 15 36 4 126 18
200 31 171 30 201 30 227 2 30 -33 151 -227 207 -333 73 -138 258 -435 266
-430 5 3 6 14 3 25 -3 12 0 20 7 20 9 0 11 -10 7 -30 -4 -17 -2 -30 3 -30 6 0
10 -9 10 -19 0 -26 27 -52 46 -44 10 4 17 -2 21 -16 6 -25 18 -27 27 -5 8 20
8 189 0 197 -8 8 -74 196 -124 352 -21 66 -54 163 -74 215 -55 146 -62 183
-48 235 7 25 12 56 12 69 0 48 6 51 83 48 55 -3 101 4 192 26 149 37 173 41
257 43 66 2 98 -11 98 -40 0 -6 5 -11 10 -11 6 0 10 -12 10 -27 1 -24 2 -25
11 -10 5 9 14 17 19 17 6 0 10 -8 11 -17 0 -12 5 -7 14 12 7 17 23 32 36 35
13 3 24 12 24 20 0 14 34 47 45 43 3 -1 9 5 13 13 4 8 16 14 25 14 14 0 14 2
3 9 -10 6 3 14 42 25 30 9 62 16 70 16 8 0 19 6 25 13 6 7 27 19 46 27 19 7
33 17 30 22 -3 4 0 8 6 8 12 0 71 39 82 54 3 5 14 11 24 12 9 2 20 7 23 12 8
13 101 62 117 62 8 0 14 4 14 8 0 4 15 16 33 26 17 11 49 33 70 49 21 16 124
73 230 127 106 53 253 132 327 175 74 43 191 110 260 148 136 76 163 94 320
206 173 123 351 275 419 358 147 178 203 420 143 612 -22 70 -29 81 -117 168
-87 85 -104 97 -227 157 -174 85 -230 103 -390 121 -73 9 -149 20 -168 25 -19
6 -50 10 -67 10 -49 0 -40 20 30 65 88 57 119 86 170 162 114 169 140 373 71
562 -50 136 -212 280 -373 332 -99 32 -270 68 -328 70 -37 1 -37 2 -8 8 29 7
28 7 -20 19 -56 13 -264 32 -350 32 -66 0 -70 -16 -11 -37 58 -20 126 -55 126
-66 0 -5 7 -7 15 -3 24 9 106 -5 102 -18 -2 -6 -25 -15 -50 -20 -26 -4 -47
-12 -47 -16 0 -12 74 -76 134 -116 43 -28 62 -50 90 -103 45 -86 66 -167 66
-252 0 -145 -57 -334 -138 -456 -93 -140 -336 -378 -470 -458 -81 -49 -174
-79 -226 -72 -47 7 -69 -2 -61 -24 8 -20 -33 -71 -54 -67 -9 1 -31 -8 -50 -21
-24 -17 -49 -24 -91 -26 -32 -2 -69 -7 -82 -11 -13 -4 -35 -7 -50 -6 -16 1
-36 -6 -47 -17 -13 -13 -23 -16 -34 -9 -12 6 -22 1 -39 -22 -15 -21 -29 -30
-41 -26 -10 2 -27 -5 -40 -19 -12 -13 -34 -29 -50 -34 -23 -9 -27 -15 -23 -37
4 -21 -4 -38 -35 -76 -23 -26 -45 -45 -50 -42 -5 3 -9 1 -9 -5 0 -15 -78 -58
-145 -80 -33 -11 -100 -34 -150 -52 -104 -37 -241 -75 -270 -74 -20 0 -20 9
-27 400 -7 399 3 885 23 1105 25 278 57 421 183 800 71 215 85 254 126 345 10
22 39 87 65 145 60 135 207 426 237 470 13 19 59 100 103 180 153 282 554 829
809 1105 51 55 116 127 145 160 30 33 140 148 246 255 105 107 194 200 196
207 8 22 134 162 147 162 7 1 10 6 6 12 -4 8 -9 8 -17 0 -6 -6 -18 -11 -26
-11 -13 1 -12 4 3 15 11 8 16 15 12 15 -5 0 -4 6 1 13 14 17 23 57 13 57 -4 0
-32 -20 -61 -44z m372 -4546 c68 -21 100 -47 181 -148 24 -30 52 -65 63 -79
18 -22 20 -39 20 -186 0 -181 -9 -228 -63 -346 -63 -136 -126 -224 -248 -340
-64 -61 -139 -126 -167 -145 -29 -19 -70 -54 -92 -76 -22 -23 -76 -66 -120
-95 -44 -30 -105 -71 -135 -92 -79 -54 -107 -69 -208 -108 -67 -26 -98 -33
-126 -28 -20 3 -36 9 -36 14 0 5 -16 -1 -35 -12 -19 -12 -35 -18 -35 -14 0 3
-10 -1 -22 -9 -12 -9 -32 -16 -45 -16 -12 0 -29 -8 -39 -17 -10 -10 -20 -18
-23 -18 -16 0 -77 -31 -93 -47 -10 -10 -30 -20 -45 -23 -16 -4 -40 -13 -54
-20 -14 -8 -34 -14 -45 -14 -10 0 -36 -2 -56 -5 -21 -2 -38 0 -38 5 0 5 -17
-2 -39 -15 -22 -14 -47 -23 -58 -20 -13 4 -23 0 -27 -12 -5 -13 -4 -14 7 -6 8
7 18 7 27 2 13 -9 13 -10 0 -10 -12 0 -12 -2 -2 -9 8 -4 12 -19 10 -31 -2 -18
-23 -33 -84 -64 -45 -23 -88 -46 -95 -52 -20 -15 -193 -89 -307 -131 -80 -29
-112 -36 -179 -37 -61 -1 -86 3 -97 14 -9 9 -20 53 -26 105 -7 50 -32 186 -57
304 -76 365 -83 413 -83 563 0 157 -6 148 100 167 158 28 285 67 300 92 10 15
158 50 185 43 14 -3 22 -10 19 -15 -3 -5 -1 -16 4 -25 7 -12 11 -13 17 -5 4 7
4 15 1 18 -8 8 31 41 58 49 136 39 227 72 253 91 17 13 37 23 43 23 6 0 43 16
83 35 39 19 78 35 85 35 8 0 26 9 42 20 15 11 29 17 32 15 2 -2 17 7 32 20 16
14 26 25 22 25 -4 0 -1 7 8 15 8 8 18 15 21 15 4 0 43 29 86 64 44 35 131 90
192 122 131 67 397 227 547 328 58 38 121 78 140 88 46 23 123 22 201 -2z
m-2499 -1142 c-5 -114 -9 -122 -11 -20 0 50 3 92 7 92 4 0 6 -33 4 -72z
m-1127 -210 l40 -12 -80 -8 c-44 -5 -100 -6 -125 -4 -25 3 -56 5 -69 5 -41 1
-11 19 39 24 96 8 157 6 195 -5z"/>
<path d="M3321 6821 c-1 -42 0 -43 14 -25 16 21 20 59 6 50 -5 -4 -12 0 -14 6
-3 7 -6 -7 -6 -31z"/>
<path d="M4090 6811 c0 -6 5 -13 10 -16 6 -3 10 -24 10 -46 0 -48 34 -108 63
-109 8 0 9 56 1 88 -4 12 -12 22 -19 22 -7 0 -16 16 -19 35 -5 26 -12 35 -26
35 -11 0 -20 -4 -20 -9z"/>
<path d="M3406 6695 c-8 -40 0 -58 14 -35 12 19 12 41 1 58 -6 10 -10 3 -15
-23z"/>
<path d="M3403 6615 c-15 -17 -7 -45 13 -45 9 0 14 11 14 30 0 33 -8 37 -27
15z"/>
<path d="M4152 6610 c0 -14 2 -19 5 -12 2 6 2 18 0 25 -3 6 -5 1 -5 -13z"/>
<path d="M3480 6319 c0 -5 5 -7 10 -4 6 3 10 8 10 11 0 2 -4 4 -10 4 -5 0 -10
-5 -10 -11z"/>
<path d="M3470 6118 c0 -7 4 -19 9 -27 11 -17 25 3 17 24 -7 18 -26 20 -26 3z"/>
<path d="M3480 6051 c0 -12 5 -21 10 -21 6 0 10 6 10 14 0 8 -4 18 -10 21 -5
3 -10 -3 -10 -14z"/>
<path d="M3660 9565 c-10 -12 -10 -15 3 -15 19 0 31 16 18 24 -5 3 -14 -1 -21
-9z"/>
<path d="M3709 9523 c-4 -8 -4 -67 0 -140 0 -18 6 -33 12 -33 8 0 10 26 7 85
-5 80 -11 108 -19 88z"/>
<path d="M3713 9312 c-1 -10 5 -19 12 -19 7 0 13 9 12 19 -1 10 -6 18 -12 18
-6 0 -11 -8 -12 -18z"/>
<path d="M3723 9232 l0 -47 10 38 c5 23 6 42 0 48 -5 5 -9 -10 -10 -39z"/>
<path d="M3722 8995 c-1 -105 3 -175 8 -175 6 0 10 10 10 23 0 12 3 91 7 175
5 132 4 152 -9 152 -13 0 -16 -25 -16 -175z"/>
<path d="M3116 8278 c-8 -69 -6 -215 4 -253 5 -18 8 38 9 138 0 92 -1 167 -3
167 -2 0 -6 -24 -10 -52z"/>
<path d="M3876 8055 c5 -11 9 -50 9 -87 0 -36 3 -70 8 -74 4 -4 7 -34 7 -66 0
-32 4 -58 9 -58 11 0 14 136 5 227 -4 38 -10 60 -16 57 -6 -4 -15 0 -20 7 -7
10 -7 8 -2 -6z"/>
<path d="M3868 8000 c2 -16 6 -30 8 -30 2 0 4 14 4 30 0 17 -4 30 -8 30 -5 0
-7 -13 -4 -30z"/>
<path d="M3171 7804 c0 -11 3 -14 6 -6 3 7 2 16 -1 19 -3 4 -6 -2 -5 -13z"/>
<path d="M3155 7721 c0 -22 3 -27 12 -19 9 7 10 16 2 29 -13 25 -14 24 -14
-10z"/>
<path d="M4390 5560 c-2 -19 -3 -44 -2 -55 0 -11 4 -63 7 -115 6 -119 22 -200
39 -200 14 0 39 -47 32 -58 -2 -4 -1 -23 4 -42 l8 -35 1 38 c1 20 5 37 10 37
13 0 3 178 -13 229 -8 25 -17 64 -21 86 -4 22 -11 45 -17 52 -5 7 -7 17 -3 23
3 5 1 10 -4 10 -6 0 -11 10 -12 23 -1 21 -1 21 -9 -3 -7 -24 -7 -23 -12 10
l-5 35 -3 -35z"/>
<path d="M1175 5125 c-127 -14 -175 -23 -175 -34 0 -17 38 -40 80 -51 65 -15
411 -24 510 -12 47 5 119 22 159 37 41 15 102 33 135 40 57 11 41 12 -209 18
-148 3 -297 8 -330 10 -33 3 -109 -1 -170 -8z"/>
<path d="M4525 4943 c3 -15 12 -31 18 -35 9 -6 8 -11 -3 -18 -8 -5 -10 -10 -5
-10 6 0 12 -8 13 -17 3 -29 7 -47 13 -58 6 -11 5 -39 -6 -170 -4 -49 -6 -278
-5 -508 1 -266 -2 -417 -9 -413 -5 4 -7 -3 -4 -15 3 -12 0 -24 -6 -28 -7 -5
-13 -39 -15 -82 -2 -41 -11 -121 -20 -178 -9 -57 -16 -118 -16 -135 0 -17 -2
-56 -6 -87 -7 -66 11 -92 22 -32 4 21 10 43 14 48 22 30 80 330 90 465 12 160
12 693 0 830 -5 58 -12 151 -16 208 -4 56 -10 102 -14 102 -3 0 -4 16 -2 35 2
19 1 55 -3 80 -5 36 -10 45 -27 45 -17 0 -19 -4 -13 -27z"/>
<path d="M3726 4753 c3 -21 8 -45 10 -53 8 -25 24 9 24 53 0 30 -4 37 -19 37
-17 0 -19 -5 -15 -37z"/>
<path d="M3787 4673 c-4 -3 -7 -17 -7 -30 0 -14 -4 -21 -10 -18 -7 4 -7 -3 0
-19 6 -17 6 -26 0 -26 -10 0 -9 -21 3 -50 3 -8 9 -193 12 -410 4 -217 8 -408
10 -425 2 -16 3 -124 4 -238 1 -116 5 -206 10 -203 5 3 9 135 9 293 1 159 4
459 6 668 4 293 2 389 -8 418 -14 42 -20 50 -29 40z"/>
<path d="M4436 3143 c-9 -10 -7 -65 3 -59 11 7 20 55 11 61 -4 2 -10 2 -14 -2z"/>
<path d="M4391 3004 c0 -11 3 -14 6 -6 3 7 2 16 -1 19 -3 4 -6 -2 -5 -13z"/>
<path d="M4365 2940 c-3 -5 -2 -10 4 -10 5 0 13 5 16 10 3 6 2 10 -4 10 -5 0
-13 -4 -16 -10z"/>
<path d="M4347 2905 c3 -8 9 -12 14 -9 12 7 11 11 -5 17 -10 4 -13 1 -9 -8z"/>
<path d="M3664 2096 c-3 -7 -4 -17 -3 -22 1 -5 0 -13 -1 -19 -1 -5 -3 -14 -4
-20 -1 -5 -7 -21 -13 -35 -6 -14 -14 -38 -18 -54 -3 -16 -14 -30 -25 -33 -18
-5 -22 -15 -19 -39 0 -4 -5 -11 -13 -15 -11 -7 -11 -9 1 -9 11 0 11 -3 0 -17
-13 -17 -13 -17 7 0 11 9 23 15 26 12 3 -3 11 1 18 10 7 8 18 15 24 15 23 0
59 70 58 110 -1 21 3 42 8 45 6 4 8 11 5 16 -4 5 -2 9 4 9 10 0 7 31 -4 50 -9
15 -45 12 -51 -4z"/>
<path d="M3520 1776 c-12 -24 -12 -28 4 -44 17 -16 18 -16 8 4 -8 15 -8 24 0
32 5 5 8 16 6 22 -2 7 -10 0 -18 -14z"/>
</g>
</svg>
